<svg width="521" height="507" viewBox="0 0 521 507" fill="none" xmlns="http://www.w3.org/2000/svg">
<g clip-path="url(#clip0_54_68)">
<g filter="url(#filter0_d_54_68)">
<ellipse cx="172.5" cy="197" rx="154.5" ry="133" fill="url(#paint0_radial_54_68)"/>
</g>
<g filter="url(#filter1_d_54_68)">
<path d="M132.75 443C97.522 443 67.4272 433.747 42.4656 415.241C17.504 396.734 5.01548 374.116 5 347.384C5 324.472 14.0973 304.056 32.292 286.138C50.4867 268.219 74.2947 256.762 103.716 251.769C113.394 224.744 132.75 202.859 161.784 186.116C190.818 169.372 223.723 161 260.5 161C305.793 161 344.219 172.973 375.777 196.92C407.335 220.866 423.106 250.018 423.091 284.375C449.802 286.725 471.969 295.467 489.591 310.601C507.212 325.735 516.015 343.43 516 363.688C516 385.719 505.842 404.448 485.526 419.876C465.21 435.304 440.527 443.012 411.477 443H132.75Z" fill="url(#paint1_linear_54_68)"/>
</g>
</g>
<defs>
<filter id="filter0_d_54_68" x="-100" y="-50" width="545" height="502" filterUnits="userSpaceOnUse" color-interpolation-filters="sRGB">
<feFlood flood-opacity="0" result="BackgroundImageFix"/>
<feColorMatrix in="SourceAlpha" type="matrix" values="0 0 0 0 0 0 0 0 0 0 0 0 0 0 0 0 0 0 127 0" result="hardAlpha"/>
<feMorphology radius="18" operator="dilate" in="SourceAlpha" result="effect1_dropShadow_54_68"/>
<feOffset dy="4"/>
<feGaussianBlur stdDeviation="50"/>
<feComposite in2="hardAlpha" operator="out"/>
<feColorMatrix type="matrix" values="0 0 0 0 1 0 0 0 0 0.783333 0 0 0 0 0 0 0 0 0.25 0"/>
<feBlend mode="normal" in2="BackgroundImageFix" result="effect1_dropShadow_54_68"/>
<feBlend mode="normal" in="SourceGraphic" in2="effect1_dropShadow_54_68" result="shape"/>
</filter>
<filter id="filter1_d_54_68" x="1" y="161" width="519" height="290" filterUnits="userSpaceOnUse" color-interpolation-filters="sRGB">
<feFlood flood-opacity="0" result="BackgroundImageFix"/>
<feColorMatrix in="SourceAlpha" type="matrix" values="0 0 0 0 0 0 0 0 0 0 0 0 0 0 0 0 0 0 127 0" result="hardAlpha"/>
<feOffset dy="4"/>
<feGaussianBlur stdDeviation="2"/>
<feComposite in2="hardAlpha" operator="out"/>
<feColorMatrix type="matrix" values="0 0 0 0 0 0 0 0 0 0 0 0 0 0 0 0 0 0 0.25 0"/>
<feBlend mode="normal" in2="BackgroundImageFix" result="effect1_dropShadow_54_68"/>
<feBlend mode="normal" in="SourceGraphic" in2="effect1_dropShadow_54_68" result="shape"/>
</filter>
<radialGradient id="paint0_radial_54_68" cx="0" cy="0" r="1" gradientUnits="userSpaceOnUse" gradientTransform="translate(172.5 197) rotate(90) scale(133 154.5)">
<stop stop-color="#E7EE57"/>
<stop offset="0.9999" stop-color="#E1A81D"/>
</radialGradient>
<linearGradient id="paint1_linear_54_68" x1="260.5" y1="161" x2="260.5" y2="443" gradientUnits="userSpaceOnUse">
<stop stop-color="#DADADA"/>
<stop offset="1" stop-color="white"/>
</linearGradient>
<clipPath id="clip0_54_68">
<rect width="521" height="507" fill="white"/>
</clipPath>
</defs>
</svg>
