<svg width="33" height="37" viewBox="0 0 33 37" fill="none" xmlns="http://www.w3.org/2000/svg">
<g clip-path="url(#clip0_1_55)">
<path d="M22 20.0417V32.375M11 20.0417V32.375M16.5 23.125V35.4583M27.5 25.5608C28.9455 24.851 30.1292 23.6053 30.8524 22.0328C31.5756 20.4603 31.7943 18.6566 31.4719 16.9247C31.1494 15.1928 30.3053 13.6379 29.0814 12.5212C27.8574 11.4044 26.3281 10.7937 24.75 10.7917H23.0175C22.5817 8.8993 21.751 7.15017 20.5938 5.68844C19.4367 4.22671 17.9863 3.09424 16.3622 2.38437C14.7381 1.6745 12.9868 1.40757 11.2526 1.60556C9.51842 1.80355 7.85103 2.4608 6.38788 3.52314C4.92472 4.58548 3.70768 6.02249 2.83709 7.71573C1.9665 9.40896 1.46727 11.3099 1.38056 13.262C1.29385 15.214 1.62214 17.1612 2.33838 18.943C3.05461 20.7248 4.13827 22.2903 5.50005 23.5104" stroke="white" stroke-width="2" stroke-linecap="round" stroke-linejoin="round"/>
</g>
<defs>
<clipPath id="clip0_1_55">
<rect width="33" height="37" fill="white"/>
</clipPath>
</defs>
</svg>
