<svg width="88" height="88" viewBox="0 0 88 88" fill="none" xmlns="http://www.w3.org/2000/svg">
<path d="M44 42.1666C41.5689 42.1666 39.2373 41.2009 37.5182 39.4818C35.7991 37.7627 34.8334 35.4311 34.8334 33C34.8334 30.5688 35.7991 28.2373 37.5182 26.5182C39.2373 24.7991 41.5689 23.8333 44 23.8333C46.4312 23.8333 48.7628 24.7991 50.4819 26.5182C52.2009 28.2373 53.1667 30.5688 53.1667 33C53.1667 34.2038 52.9296 35.3958 52.4689 36.5079C52.0083 37.6201 51.3331 38.6306 50.4819 39.4818C49.6306 40.333 48.6201 41.0082 47.508 41.4689C46.3958 41.9295 45.2038 42.1666 44 42.1666ZM44 7.33331C37.1928 7.33331 30.6644 10.0375 25.851 14.8509C21.0375 19.6643 18.3334 26.1928 18.3334 33C18.3334 52.25 44 80.6666 44 80.6666C44 80.6666 69.6667 52.25 69.6667 33C69.6667 26.1928 66.9625 19.6643 62.1491 14.8509C57.3357 10.0375 50.8073 7.33331 44 7.33331Z" fill="white"/>
</svg>
