<svg width="507" height="507" viewBox="0 0 507 507" fill="none" xmlns="http://www.w3.org/2000/svg">
<g clip-path="url(#clip0_54_99)">
<path d="M183.083 28.1667C183.083 28.1667 183.083 0 211.25 0C239.417 0 239.417 28.1667 239.417 28.1667V56.3333C239.417 56.3333 239.417 84.5 211.25 84.5C183.083 84.5 183.083 56.3333 183.083 56.3333V28.1667ZM56.3333 183.083C56.3333 183.083 84.5 183.083 84.5 211.25C84.5 239.417 56.3333 239.417 56.3333 239.417H28.1667C28.1667 239.417 0 239.417 0 211.25C0 183.083 28.1667 183.083 28.1667 183.083H56.3333ZM110.864 85.1056C110.864 85.1056 130.778 105.019 110.864 124.933C90.9502 144.847 71.0363 124.933 71.0363 124.933L51.1084 105.034C51.1084 105.034 31.1946 85.1197 51.1084 65.1918C71.0363 45.2779 90.9502 65.1918 90.9502 65.1918L110.864 85.1056ZM351.478 124.933C351.478 124.933 331.564 144.847 311.65 124.933C291.736 105.019 311.65 85.1056 311.65 85.1056L331.564 65.1918C331.564 65.1918 351.478 45.2779 371.392 65.1918C391.305 85.1056 371.392 105.019 371.392 105.019L351.478 124.933Z" fill="#FFAC33"/>
<path d="M211.25 323.917C273.474 323.917 323.917 273.474 323.917 211.25C323.917 149.026 273.474 98.5833 211.25 98.5833C149.026 98.5833 98.5833 149.026 98.5833 211.25C98.5833 273.474 149.026 323.917 211.25 323.917Z" fill="#FFAC33"/>
<path d="M397.474 180.267C386.165 180.267 375.293 181.943 365.026 185.055C352.886 151.128 319.945 126.75 281.075 126.75C239.402 126.75 204.504 154.79 194.843 192.59C184.162 184.61 171.192 180.289 157.86 180.267C123.821 180.267 96.2454 207.222 96.2454 240.473C96.2454 248.543 97.9354 256.232 100.879 263.274C94.9138 261.559 88.7482 260.64 82.5423 260.542C44.7286 260.542 14.0833 290.483 14.0833 327.438C14.0833 364.392 44.7286 394.333 82.5423 394.333H397.46C457.962 394.333 507 346.422 507 287.3C507 228.178 457.962 180.267 397.474 180.267Z" fill="#E1E8ED"/>
<path d="M168.986 478.284L167.394 430.105L126.989 454.159C122.429 456.593 118.644 460.258 116.064 464.737C113.485 469.216 112.215 474.33 112.399 479.495C112.693 486.998 115.922 494.085 121.39 499.229C126.859 504.374 134.13 507.165 141.636 507C145.327 506.942 148.97 506.15 152.351 504.669C155.733 503.189 158.786 501.049 161.331 498.376C163.877 495.703 165.865 492.55 167.18 489.1C168.494 485.65 169.108 481.974 168.986 478.284ZM70.6983 456.596L69.0928 408.417L28.6877 432.471C24.1275 434.904 20.3422 438.569 17.7627 443.049C15.1833 447.528 13.9133 452.641 14.0973 457.807C14.391 465.309 17.6199 472.396 23.0886 477.541C28.5572 482.686 35.8279 485.476 43.3343 485.312C47.0266 485.256 50.6707 484.465 54.0539 482.985C57.4371 481.505 60.4915 479.366 63.0389 476.693C65.5864 474.02 67.5757 470.866 68.8908 467.415C70.2058 463.964 70.8203 460.286 70.6983 456.596ZM267.865 464.201L266.274 416.022L225.868 440.076C221.308 442.509 217.523 446.174 214.943 450.654C212.364 455.133 211.094 460.246 211.278 465.412C211.572 472.914 214.801 480.001 220.269 485.146C225.738 490.291 233.009 493.081 240.515 492.917C244.206 492.859 247.849 492.067 251.23 490.586C254.612 489.105 257.665 486.966 260.211 484.293C262.756 481.62 264.745 478.466 266.059 475.017C267.373 471.567 267.987 467.89 267.865 464.201ZM352.055 478.284L350.464 430.105L310.059 454.159C305.501 456.595 301.719 460.261 299.142 464.74C296.565 469.219 295.297 474.331 295.482 479.495C295.776 486.998 299.005 494.085 304.474 499.229C309.942 504.374 317.213 507.165 324.719 507C328.41 506.942 332.052 506.15 335.433 504.669C338.813 503.188 341.865 501.049 344.41 498.375C346.955 495.702 348.942 492.549 350.254 489.099C351.567 485.649 352.179 481.973 352.055 478.284ZM436.851 456.596L435.245 408.417L394.84 432.471C390.283 434.906 386.5 438.572 383.923 443.051C381.346 447.53 380.079 452.643 380.264 457.807C380.547 465.313 383.773 472.406 389.244 477.553C394.715 482.7 401.992 485.487 409.501 485.312C413.192 485.254 416.835 484.462 420.216 482.981C423.598 481.5 426.651 479.361 429.196 476.688C431.742 474.015 433.73 470.861 435.045 467.412C436.359 463.962 436.973 460.285 436.851 456.596Z" fill="#5DADEC"/>
</g>
<defs>
<clipPath id="clip0_54_99">
<rect width="507" height="507" fill="white"/>
</clipPath>
</defs>
</svg>
