<svg width="507" height="507" viewBox="0 0 507 507" fill="none" xmlns="http://www.w3.org/2000/svg">
<path d="M258.458 287.916C263.301 282.654 273.24 284.909 274.325 291.513L278.891 319.445L292.273 359.269C294.518 366.007 294.93 373.087 293.479 379.979C292.027 386.871 288.749 393.395 283.891 399.062C275.497 408.854 262.864 415.438 248.751 417.375C241.258 418.392 233.596 418.058 226.266 416.396C218.936 414.734 212.103 411.781 206.216 407.731C195.146 400.082 188.102 389.039 186.621 377.012C185.76 370.05 186.774 363.013 189.587 356.429C192.399 349.846 196.938 343.887 202.863 338.999L237.995 310.175L258.458 287.916ZM360.6 397.757C365.323 392.812 374.746 394.946 375.906 401.227L377.747 411.169C379.214 419.116 381.362 426.962 384.162 434.649L392.028 456.255C393.922 461.457 394.46 466.945 393.606 472.339C392.751 477.734 390.524 482.908 387.078 487.504C383.631 492.101 379.048 496.01 373.644 498.963C368.239 501.916 362.142 503.842 355.773 504.609L354.373 504.78C347.977 505.551 341.462 505.219 335.221 503.804C328.98 502.389 323.142 499.921 318.058 496.548L316.943 495.807C311.88 492.449 307.738 488.201 304.803 483.357C301.867 478.514 300.208 473.189 299.94 467.751C299.672 462.313 300.801 456.89 303.249 451.856C305.697 446.823 309.406 442.298 314.121 438.594L333.708 423.207C340.675 417.736 347.169 411.849 353.138 405.59L360.6 397.757ZM141.863 412.993C146.698 407.731 156.645 409.985 157.731 416.589L160.425 433.117L170.469 462.98C172.152 468.034 172.46 473.345 171.37 478.513C170.28 483.682 167.82 488.575 164.175 492.824C159.38 498.444 152.679 502.698 144.961 505.022C137.242 507.346 128.872 507.629 120.958 505.835C113.045 504.041 105.964 500.254 100.653 494.976C95.3423 489.699 92.0535 483.18 91.2227 476.284C90.5775 471.063 91.3386 465.785 93.4489 460.847C95.5592 455.91 98.964 451.441 103.408 447.776L129.753 426.164L141.863 412.993Z" fill="#81E0FF"/>
<g filter="url(#filter0_d_54_90)">
<path d="M144 267C113.667 267 87.7533 259.092 66.26 243.277C44.7667 227.461 34.0133 208.131 34 185.286C34 165.705 41.8333 148.257 57.5 132.944C73.1667 117.63 93.6667 107.84 119 103.572C127.333 80.476 144 61.7734 169 47.4641C194 33.1547 222.333 26 254 26C293 26 326.087 36.2325 353.26 56.6974C380.433 77.1623 394.013 102.076 394 131.437C417 133.446 436.087 140.917 451.26 153.85C466.433 166.784 474.013 181.907 474 199.219C474 218.047 465.253 234.053 447.76 247.238C430.267 260.423 409.013 267.01 384 267H144Z" fill="url(#paint0_linear_54_90)"/>
</g>
<defs>
<filter id="filter0_d_54_90" x="34" y="26" width="440" height="245" filterUnits="userSpaceOnUse" color-interpolation-filters="sRGB">
<feFlood flood-opacity="0" result="BackgroundImageFix"/>
<feColorMatrix in="SourceAlpha" type="matrix" values="0 0 0 0 0 0 0 0 0 0 0 0 0 0 0 0 0 0 127 0" result="hardAlpha"/>
<feOffset dy="4"/>
<feComposite in2="hardAlpha" operator="out"/>
<feColorMatrix type="matrix" values="0 0 0 0 0 0 0 0 0 0 0 0 0 0 0 0 0 0 0.25 0"/>
<feBlend mode="normal" in2="BackgroundImageFix" result="effect1_dropShadow_54_90"/>
<feBlend mode="normal" in="SourceGraphic" in2="effect1_dropShadow_54_90" result="shape"/>
</filter>
<linearGradient id="paint0_linear_54_90" x1="254" y1="26" x2="254" y2="267" gradientUnits="userSpaceOnUse">
<stop stop-color="#A6A6A6"/>
<stop offset="1" stop-color="#D2D2D2"/>
</linearGradient>
</defs>
</svg>
