<svg width="521" height="507" viewBox="0 0 521 507" fill="none" xmlns="http://www.w3.org/2000/svg">
<path fill-rule="evenodd" clip-rule="evenodd" d="M238.792 103.808L180.027 46.6229L210.723 16.7521L260.5 65.1918L310.277 16.7521L340.973 46.6229L282.208 103.808V170.817L298.49 186.661L347.333 139.129V84.5H390.75V126.75H434.167V169H378.029L329.185 216.531L345.467 232.375H403.471L462.236 175.19L492.931 205.06L443.154 253.5L492.931 301.94L462.236 331.81L403.471 274.625H345.467L329.185 290.469L378.029 338H434.167V380.25H390.75V422.5H347.333V367.871L298.49 320.339L282.208 336.183V403.192L340.973 460.377L310.277 490.248L260.5 441.808L210.723 490.248L180.027 460.377L238.792 403.192V336.183L222.511 320.339L173.667 367.871V422.5H130.25V380.25H86.8335V338H142.971L191.815 290.469L175.534 274.625H106.675L47.9104 331.81L17.2148 301.94L66.9921 253.5L17.2148 205.06L47.9104 175.19L106.675 232.375H175.534L191.815 216.531L142.971 169H86.8335V126.75H130.25V84.5H173.667V139.129L222.511 186.661L238.792 170.817V103.808ZM260.5 297.567L215.217 253.5L260.5 209.433L305.784 253.5L260.5 297.567Z" fill="#8FBFFA"/>
</svg>
