<svg width="521" height="507" viewBox="0 0 521 507" fill="none" xmlns="http://www.w3.org/2000/svg">
<path d="M38.6079 206.908C38.6079 216.857 42.7576 226.399 50.1442 233.434C57.5307 240.469 67.549 244.421 77.9952 244.421H235.787V244.305L238.583 244.421C249.024 244.298 259.048 240.501 266.727 233.762C274.405 227.023 279.196 217.817 280.176 207.917C281.157 198.016 278.259 188.119 272.039 180.132C265.819 172.144 256.717 166.629 246.485 164.648C247.667 157.612 246.721 150.401 243.758 143.859C240.794 137.316 235.935 131.713 229.75 127.705C223.564 123.697 216.309 121.449 208.831 121.225C201.353 121.001 193.963 122.81 187.526 126.44C180.152 114.992 168.722 106.434 155.301 102.311C141.88 98.1884 127.354 98.7738 114.347 103.961C101.339 109.149 90.7091 118.596 84.3768 130.596C78.0445 142.597 76.4277 156.358 79.8186 169.395H77.9952C67.57 169.395 57.5701 173.331 50.1871 180.341C42.804 187.351 38.6401 196.863 38.6079 206.792V206.908Z" fill="url(#paint0_linear_54_104)" stroke="#848B98" stroke-width="0.03125" stroke-miterlimit="10"/>
<g clip-path="url(#clip0_54_104)">
<path d="M412.01 240.216L408.766 240.326C414.991 218.975 412.003 196.443 400.344 176.794C388.684 157.145 369.119 141.674 345.179 133.171C321.24 124.668 294.501 123.694 269.788 130.424C245.075 137.154 224.015 151.145 210.407 169.873C199.391 164.329 186.84 161.352 174.028 161.244C161.215 161.136 148.597 163.9 137.452 169.257C126.308 174.614 117.034 182.373 110.572 191.747C104.109 201.12 100.688 211.775 100.654 222.63C100.688 225.946 101.036 229.254 101.692 232.522C82.5685 235.517 65.4606 244.467 53.7363 257.613C42.0119 270.758 36.5203 287.145 38.3427 303.549C40.165 319.953 49.1691 335.184 63.5826 346.245C77.9961 357.307 96.7747 363.396 116.222 363.315L121.411 363.095V363.315H412.01C431.277 363.315 449.756 356.83 463.381 345.287C477.005 333.745 484.659 318.089 484.659 301.765C484.659 285.441 477.005 269.786 463.381 258.243C449.756 246.7 431.277 240.216 412.01 240.216Z" fill="url(#paint1_linear_54_104)" stroke="#5B6472" stroke-width="0.1875" stroke-miterlimit="10"/>
</g>
<defs>
<linearGradient id="paint0_linear_54_104" x1="102.065" y1="110.115" x2="193.172" y2="275.71" gradientUnits="userSpaceOnUse">
<stop stop-color="#9CA3AF"/>
<stop offset="0.5" stop-color="#9CA3AF"/>
<stop offset="1" stop-color="#6B7280"/>
</linearGradient>
<linearGradient id="paint1_linear_54_104" x1="163.574" y1="156.355" x2="296.911" y2="429.144" gradientUnits="userSpaceOnUse">
<stop stop-color="#6B7280"/>
<stop offset="0.5" stop-color="#6B7280"/>
<stop offset="1" stop-color="#4B5563"/>
</linearGradient>
<clipPath id="clip0_54_104">
<rect width="454.06" height="244" fill="white" transform="translate(38 123)"/>
</clipPath>
</defs>
</svg>
