<svg width="33" height="37" viewBox="0 0 33 37" fill="none" xmlns="http://www.w3.org/2000/svg">
<path d="M13.1863 7.07625C13.5057 6.71598 13.8995 6.44979 14.3328 6.30132C14.7661 6.15285 15.2254 6.12672 15.6699 6.22524C16.1144 6.32376 16.5302 6.54388 16.8805 6.86604C17.2308 7.18819 17.5047 7.60241 17.6779 8.07185C17.851 8.54129 17.918 9.05142 17.8729 9.55689C17.8278 10.0624 17.672 10.5475 17.4194 10.9692C17.1668 11.3909 16.8251 11.7361 16.4249 11.9741C16.0246 12.2121 15.5781 12.3355 15.125 12.3333H2.75M17.3113 29.9238C17.6307 30.284 18.0245 30.5502 18.4578 30.6987C18.8911 30.8472 19.3504 30.8733 19.7949 30.7748C20.2394 30.6762 20.6552 30.4561 21.0055 30.134C21.3558 29.8118 21.6297 29.3976 21.8029 28.9282C21.976 28.4587 22.043 27.9486 21.9979 27.4431C21.9528 26.9376 21.797 26.4525 21.5444 26.0308C21.2918 25.6091 20.9501 25.2639 20.5499 25.0259C20.1496 24.7879 19.7031 24.6645 19.25 24.6667H2.75M24.3787 11.9171C24.7787 11.4698 25.2707 11.14 25.8114 10.9566C26.3521 10.7733 26.9247 10.7422 27.4787 10.8661C28.0326 10.99 28.5508 11.265 28.9874 11.6668C29.424 12.0687 29.7655 12.5849 29.9818 13.17C30.1981 13.755 30.2825 14.3908 30.2275 15.0211C30.1725 15.6515 29.9798 16.2569 29.6665 16.7838C29.3531 17.3108 28.9288 17.743 28.431 18.0424C27.9333 18.3417 27.3774 18.4989 26.8125 18.5H2.75" stroke="white" stroke-width="2" stroke-linecap="round" stroke-linejoin="round"/>
</svg>
